# xmcd
#
# Track frame offsets:
#        150
#        24225
#        61237
#        87990
#        116025
#        138015
#        158602
#        190132
#        221235
#        245835
#
# Disc length: 3828 seconds
#
# Revision: 0
# Processed by: cddbd v1.5.1PL0 Copyright (c) Steve Scherf et al.
# Submitted via: ExactAudioCopy v0.95a5
#
DISCID=850ef20a
DTITLE=Jill' S Project - Last Contract
DYEAR=2004
DGENRE=
TTITLE0=Reach Out For Something
TTITLE1=I Have The Shakes
TTITLE2=Upsurge. Unconscious.
TTITLE3=Disappears
TTITLE4=Heavy Rain Sheds Blood
TTITLE5=Named Astaru
TTITLE6=P.C.J.L.
TTITLE7=Nobodys Allow You
TTITLE8=Nobodys Notices
TTITLE9=Last Contract
EXTD=
EXTT0=
EXTT1=
EXTT2=
EXTT3=
EXTT4=
EXTT5=
EXTT6=
EXTT7=
EXTT8=
EXTT9=
PLAYORDER=
